<svg width="29" height="26" viewBox="0 0 29 26" fill="none" xmlns="http://www.w3.org/2000/svg">
<path d="M14.1134 26L19.3139 10.0035H8.92056L14.1134 26Z" fill="#E24329"/>
<path d="M1.63643 10.0035L0.0527612 14.8635C-0.090547 15.3048 0.064216 15.7919 0.442469 16.067L14.1135 26L1.63643 10.0035Z" fill="#FCA326"/>
<path d="M1.63641 10.0036H8.92055L5.78566 0.369662C5.62521 -0.123221 4.92598 -0.123221 4.75976 0.369662L1.63641 10.0036Z" fill="#E24329"/>
<path d="M26.5981 10.0035L28.1761 14.8635C28.3194 15.3048 28.1647 15.7919 27.7864 16.067L14.1134 26L26.5981 10.0035Z" fill="#FCA326"/>
<path d="M26.5981 10.0036H19.314L22.4431 0.369662C22.6036 -0.123221 23.3028 -0.123221 23.469 0.369662L26.5981 10.0036Z" fill="#E24329"/>
<path d="M14.1134 26L19.3139 10.0035H26.5981L14.1134 26Z" fill="#FC6D26"/>
<path d="M14.1134 26L1.63641 10.0035H8.92055L14.1134 26Z" fill="#FC6D26"/>
</svg>
