<svg width="671" height="305" viewBox="0 0 671 305" fill="none" xmlns="http://www.w3.org/2000/svg">
<g clip-path="url(#clip0)">
<path d="M328.433 253.566C338.462 264.338 338.98 280.17 338.98 280.17C338.98 280.17 323.238 278.538 313.209 267.766C303.18 256.995 302.662 241.162 302.662 241.162C302.662 241.162 318.404 242.795 328.433 253.566Z" fill="#45AA4F"/>
<path d="M360.005 270.38C349.243 280.418 333.425 280.937 333.425 280.937C333.425 280.937 335.056 265.18 345.818 255.142C356.58 245.104 372.397 244.585 372.397 244.585C372.397 244.585 370.766 260.341 360.005 270.38Z" fill="#45AA4F"/>
<path d="M357.33 302.35H317.748C316.988 302.35 316.244 302.136 315.601 301.733C314.957 301.33 314.439 300.754 314.107 300.07L305.489 282.339C305.189 281.721 305.051 281.037 305.087 280.351C305.123 279.665 305.334 279 305.698 278.417C306.062 277.835 306.568 277.355 307.168 277.022C307.768 276.689 308.443 276.514 309.13 276.514H365.948C366.634 276.514 367.309 276.689 367.91 277.022C368.51 277.355 369.016 277.835 369.38 278.417C369.744 279 369.954 279.665 369.991 280.351C370.027 281.037 369.889 281.721 369.589 282.339L360.971 300.07C360.638 300.754 360.121 301.33 359.477 301.733C358.833 302.136 358.089 302.35 357.33 302.35Z" fill="#3F3D56"/>
<path d="M535.092 86.1057C553.294 86.1057 568.049 71.3361 568.049 53.117C568.049 34.8979 553.294 20.1284 535.092 20.1284C516.889 20.1284 502.134 34.8979 502.134 53.117C502.134 71.3361 516.889 86.1057 535.092 86.1057Z" fill="#FFB8B8"/>
<path d="M510.493 69.6115C510.493 69.6115 516.702 116.465 507.149 121.724C497.596 126.983 563.99 127.461 563.99 127.461C563.99 127.461 549.182 86.8229 555.869 74.3924L510.493 69.6115Z" fill="#FFB8B8"/>
<path d="M612.47 127.698L606.949 152.865L595.274 206.11L594.924 209.026L590.895 242.783L588.215 265.209L586.417 280.273C575.491 285.894 567.571 289.774 567.571 289.774C567.571 289.774 566.89 286.356 565.792 281.982C558.123 284.283 543.934 288.101 531.909 288.864C536.288 293.749 538.3 298.338 535.571 301.725C527.333 311.935 493.324 290.546 481.43 282.57C481.153 284.479 481.048 286.41 481.116 288.339L472.013 281.332L472.914 265.209L474.433 237.929L476.343 203.718C475.741 202.254 475.236 200.751 474.832 199.219C472.045 189.296 468.661 169.481 466.066 152.865C463.977 139.492 462.409 128.191 462.077 125.787C462.032 125.473 462.01 125.311 462.01 125.311L512.399 103.025C515.98 111.337 532.702 113.836 532.702 113.836C546.556 112.881 557.415 105.568 557.415 105.568L612.47 127.698Z" fill="#D0CDE1"/>
<path d="M571.394 280.215C571.394 280.215 569.261 280.946 565.792 281.982C558.123 284.283 543.934 288.101 531.909 288.864C521.556 289.528 512.807 287.931 511.207 281.17C510.521 278.263 511.494 275.872 513.614 273.907C519.942 268.035 536.471 265.931 549.581 265.209C553.283 265.007 556.707 264.913 559.558 264.877C564.398 264.814 567.571 264.913 567.571 264.913L567.647 265.209L571.394 280.215Z" fill="#FFB8B8"/>
<path d="M507.674 21.9129L501.511 19.4435C501.511 19.4435 514.396 5.24485 532.323 6.47957L527.281 0.923506C527.281 0.923506 539.606 -4.01512 550.81 8.94884C556.7 15.7637 563.514 23.7742 567.762 32.798H574.362L571.607 38.8684L581.248 44.9389L571.353 43.8485C571.943 47.1727 572.033 50.5664 571.622 53.9174C571.197 57.2694 569.488 60.3252 566.855 62.44C566.855 62.44 559.213 46.6062 559.213 44.1368V50.3102C559.213 50.3102 553.051 44.7542 553.051 41.0502L549.689 45.3716L548.009 38.5809L527.281 45.3716L530.642 39.8156L517.757 41.6676L522.799 34.8769C522.799 34.8769 508.234 42.9022 507.674 49.6929C507.114 56.4835 502.85 62.9181 502.85 62.9181C502.85 62.9181 491.428 31.1729 507.674 21.9129Z" fill="#2F2E41"/>
<path d="M648.294 243.398C644.937 247.04 636.619 252.527 626.535 258.466C622.783 260.673 618.79 262.948 614.716 265.209C604.995 270.606 594.816 275.953 586.417 280.273C575.491 285.894 567.571 289.774 567.571 289.774C567.571 289.774 566.89 286.356 565.792 281.982C564.322 276.128 562.108 268.56 559.8 265.209C559.719 265.092 559.638 264.984 559.558 264.877C558.885 263.993 558.209 263.477 557.541 263.477L590.895 242.783L605.308 233.838L594.924 209.026L581.9 177.901L589.761 152.865L597.662 127.698H612.471C612.471 127.698 617.374 138.411 623.644 153.349C624.581 155.583 625.549 157.912 626.535 160.316C639.433 191.718 655.514 235.569 648.294 243.398Z" fill="#D0CDE1"/>
<path d="M535.57 301.725C527.333 311.935 493.324 290.546 481.43 282.57C478.839 280.834 477.297 279.735 477.297 279.735L488.179 265.209L491.626 260.611C491.626 260.611 494.709 262.248 499.267 264.913C499.433 265.011 499.599 265.11 499.769 265.209C503.7 267.519 508.634 270.538 513.614 273.907C520.485 278.559 527.431 283.866 531.909 288.864C536.288 293.749 538.3 298.338 535.57 301.725Z" fill="#FFB8B8"/>
<path d="M499.268 264.913C498.051 264.908 496.837 265.007 495.637 265.209C485.333 266.981 482.295 276.316 481.43 282.57C481.153 284.48 481.048 286.41 481.116 288.339L472.013 281.332L468.697 278.779C460.714 275.993 453.602 271.045 447.435 265.209C442.085 260.056 437.286 254.359 433.115 248.211C428.961 242.151 425.258 235.794 422.036 229.19C421.137 227.348 420.654 225.329 420.62 223.279C420.587 221.229 421.004 219.196 421.843 217.325L433.115 192.18L449.59 155.431C449.711 154.556 449.844 153.701 449.989 152.865C453.257 134.113 462.01 125.787 462.01 125.787H468.697L473.17 152.865L478.727 186.506L474.832 199.219L465.833 228.58L474.434 237.929L499.268 264.913Z" fill="#D0CDE1"/>
<path d="M506.836 186.533L512.552 193.208C514.676 192.803 516.894 192.326 519.178 191.792L517.536 186.533L521.551 191.221C545.752 185.263 575.749 173.68 575.749 173.68C575.749 173.68 543.364 176.056 519.184 170.769C508.485 168.429 497.478 173.738 493.088 183.779C490.536 189.616 490.937 194.673 499.987 194.673C503.045 194.62 506.095 194.333 509.109 193.814L506.836 186.533Z" fill="#EF8538"/>
<path d="M637.157 296.252V298.975C637.158 299.723 637.02 300.464 636.749 301.16C636.628 301.47 636.483 301.77 636.314 302.057C635.78 302.955 635.022 303.698 634.114 304.214C633.207 304.729 632.181 305 631.138 305H431C429.956 305 428.93 304.729 428.023 304.214C427.115 303.698 426.357 302.955 425.823 302.057C425.654 301.77 425.509 301.47 425.388 301.16C425.117 300.464 424.979 299.723 424.98 298.975V296.252C424.98 295.461 425.136 294.677 425.438 293.946C425.741 293.215 426.184 292.551 426.743 291.992C427.302 291.432 427.966 290.988 428.696 290.686C429.426 290.383 430.209 290.227 431 290.227H442.536V288.958C442.536 288.925 442.542 288.892 442.555 288.862C442.568 288.831 442.586 288.803 442.609 288.78C442.633 288.757 442.66 288.738 442.691 288.726C442.721 288.713 442.754 288.707 442.787 288.707H448.806C448.839 288.707 448.872 288.713 448.902 288.726C448.933 288.738 448.96 288.757 448.984 288.78C449.007 288.803 449.026 288.831 449.038 288.862C449.051 288.892 449.057 288.925 449.057 288.958V290.227H452.817V288.958C452.817 288.925 452.824 288.892 452.836 288.862C452.849 288.831 452.867 288.803 452.891 288.78C452.914 288.757 452.942 288.738 452.972 288.726C453.003 288.713 453.035 288.707 453.068 288.707H459.088C459.121 288.707 459.153 288.713 459.184 288.726C459.214 288.738 459.242 288.757 459.265 288.78C459.288 288.803 459.307 288.831 459.32 288.862C459.332 288.892 459.339 288.925 459.339 288.958V290.227H463.103V288.958C463.103 288.925 463.11 288.892 463.122 288.862C463.135 288.831 463.153 288.803 463.177 288.78C463.2 288.757 463.228 288.738 463.258 288.726C463.289 288.713 463.321 288.707 463.354 288.707H469.373C469.406 288.707 469.439 288.713 469.469 288.726C469.5 288.738 469.528 288.757 469.551 288.78C469.574 288.803 469.593 288.831 469.605 288.862C469.618 288.892 469.624 288.925 469.624 288.958V290.227H473.385V288.958C473.385 288.925 473.391 288.892 473.404 288.862C473.416 288.831 473.435 288.803 473.458 288.78C473.481 288.757 473.509 288.738 473.54 288.726C473.57 288.713 473.603 288.707 473.636 288.707H479.655C479.688 288.707 479.72 288.713 479.751 288.726C479.781 288.738 479.809 288.757 479.832 288.78C479.856 288.803 479.874 288.831 479.887 288.862C479.899 288.892 479.906 288.925 479.906 288.958V290.227H483.666V288.958C483.666 288.925 483.672 288.892 483.685 288.862C483.698 288.831 483.716 288.803 483.739 288.78C483.763 288.757 483.791 288.738 483.821 288.726C483.851 288.713 483.884 288.707 483.917 288.707H489.936C489.969 288.707 490.002 288.713 490.032 288.726C490.063 288.738 490.091 288.757 490.114 288.78C490.137 288.803 490.156 288.831 490.168 288.862C490.181 288.892 490.187 288.925 490.187 288.958V290.227H493.952V288.958C493.952 288.925 493.958 288.892 493.971 288.862C493.984 288.831 494.002 288.803 494.025 288.78C494.049 288.757 494.076 288.738 494.107 288.726C494.137 288.713 494.17 288.707 494.203 288.707H500.222C500.255 288.707 500.288 288.713 500.318 288.726C500.349 288.738 500.376 288.757 500.4 288.78C500.423 288.803 500.442 288.831 500.454 288.862C500.467 288.892 500.473 288.925 500.473 288.958V290.227H504.233V288.958C504.233 288.925 504.24 288.892 504.252 288.862C504.265 288.831 504.284 288.803 504.307 288.78C504.33 288.757 504.358 288.738 504.388 288.726C504.419 288.713 504.451 288.707 504.484 288.707H551.634C551.667 288.707 551.699 288.713 551.73 288.726C551.76 288.738 551.788 288.757 551.811 288.78C551.835 288.803 551.853 288.831 551.866 288.862C551.878 288.892 551.885 288.925 551.885 288.958V290.227H555.649V288.958C555.649 288.925 555.656 288.892 555.668 288.862C555.681 288.831 555.7 288.803 555.723 288.78C555.746 288.757 555.774 288.738 555.804 288.726C555.835 288.713 555.867 288.707 555.9 288.707H561.92C561.986 288.707 562.049 288.734 562.096 288.781C562.143 288.828 562.17 288.891 562.171 288.958V290.227H565.931V288.958C565.931 288.925 565.937 288.892 565.95 288.862C565.962 288.831 565.981 288.803 566.004 288.78C566.028 288.757 566.055 288.738 566.086 288.726C566.116 288.713 566.149 288.707 566.182 288.707H572.201C572.234 288.707 572.267 288.713 572.297 288.726C572.328 288.738 572.355 288.757 572.379 288.78C572.402 288.803 572.42 288.831 572.433 288.862C572.446 288.892 572.452 288.925 572.452 288.958V290.227H576.212V288.958C576.212 288.925 576.219 288.892 576.231 288.862C576.244 288.831 576.262 288.803 576.286 288.78C576.309 288.757 576.337 288.738 576.367 288.726C576.398 288.713 576.43 288.707 576.463 288.707H582.482C582.515 288.707 582.548 288.713 582.579 288.726C582.609 288.738 582.637 288.757 582.66 288.78C582.683 288.803 582.702 288.831 582.714 288.862C582.727 288.892 582.733 288.925 582.733 288.958V290.227H586.498V288.958C586.498 288.925 586.505 288.892 586.517 288.862C586.53 288.831 586.548 288.803 586.572 288.78C586.595 288.757 586.623 288.738 586.653 288.726C586.683 288.713 586.716 288.707 586.749 288.707H592.768C592.834 288.707 592.897 288.734 592.943 288.781C592.989 288.828 593.015 288.892 593.015 288.958V290.227H596.78V288.958C596.78 288.925 596.786 288.892 596.799 288.862C596.811 288.831 596.83 288.803 596.853 288.78C596.876 288.757 596.904 288.738 596.934 288.726C596.965 288.713 596.998 288.707 597.031 288.707H603.05C603.083 288.707 603.115 288.713 603.146 288.726C603.176 288.738 603.204 288.757 603.227 288.78C603.251 288.803 603.269 288.831 603.282 288.862C603.294 288.892 603.301 288.925 603.301 288.958V290.227H607.061V288.958C607.061 288.925 607.067 288.892 607.08 288.862C607.093 288.831 607.111 288.803 607.134 288.78C607.158 288.757 607.185 288.738 607.216 288.726C607.246 288.713 607.279 288.707 607.312 288.707H613.331C613.364 288.707 613.397 288.713 613.427 288.726C613.458 288.738 613.485 288.757 613.509 288.78C613.532 288.803 613.551 288.831 613.563 288.862C613.576 288.892 613.582 288.925 613.582 288.958V290.227H631.138C631.928 290.227 632.711 290.383 633.441 290.686C634.172 290.988 634.835 291.432 635.394 291.992C635.953 292.551 636.397 293.215 636.699 293.946C637.001 294.677 637.157 295.461 637.157 296.252Z" fill="#3F3D56"/>
<path d="M621.042 181.576H546.444V180.037H512.619V181.576H437.714C437.051 181.576 436.395 181.706 435.783 181.96C435.171 182.214 434.614 182.586 434.146 183.055C433.677 183.524 433.305 184.081 433.052 184.694C432.798 185.306 432.668 185.963 432.668 186.626V288.869C432.668 290.208 433.199 291.493 434.146 292.44C435.092 293.387 436.376 293.919 437.714 293.919H621.042C622.38 293.919 623.663 293.387 624.61 292.44C625.556 291.493 626.088 290.208 626.088 288.869V186.626C626.088 185.963 625.957 185.306 625.704 184.694C625.45 184.081 625.078 183.524 624.61 183.055C624.141 182.586 623.585 182.214 622.973 181.96C622.361 181.706 621.704 181.576 621.042 181.576Z" fill="#3F3D56"/>
<path d="M529.525 228.486C535.713 228.486 540.729 223.465 540.729 217.271C540.729 211.077 535.713 206.056 529.525 206.056C523.336 206.056 518.32 211.077 518.32 217.271C518.32 223.465 523.336 228.486 529.525 228.486Z" stroke="#D0CDE1" stroke-width="2" stroke-miterlimit="10"/>
<path d="M525.939 232.523C532.127 232.523 537.144 227.502 537.144 221.308C537.144 215.114 532.127 210.093 525.939 210.093C519.751 210.093 514.734 215.114 514.734 221.308C514.734 227.502 519.751 232.523 525.939 232.523Z" fill="#D0CDE1"/>
<path d="M196.945 132.034C205.954 132.034 213.257 124.724 213.257 115.706C213.257 106.689 205.954 99.3792 196.945 99.3792C187.936 99.3792 180.633 106.689 180.633 115.706C180.633 124.724 187.936 132.034 196.945 132.034Z" fill="#2F2E41"/>
<path d="M201.49 99.8285C204.313 99.8289 207.087 100.563 209.542 101.958C211.997 103.353 214.049 105.362 215.496 107.788C216.943 110.214 217.736 112.974 217.798 115.799C217.86 118.624 217.189 121.417 215.849 123.905C217.264 122.134 218.294 120.087 218.874 117.895C219.454 115.704 219.572 113.415 219.22 111.176C218.868 108.936 218.054 106.794 216.829 104.887C215.604 102.98 213.996 101.349 212.106 100.098C210.217 98.8475 208.088 98.0045 205.855 97.6228C203.623 97.2412 201.335 97.3293 199.138 97.8815C196.941 98.4338 194.883 99.4381 193.095 100.83C191.308 102.223 189.829 103.973 188.755 105.968C190.279 104.052 192.216 102.505 194.421 101.442C196.626 100.379 199.042 99.8274 201.49 99.8285Z" fill="#2F2E41"/>
<path d="M166.464 115.672C192.928 115.672 214.381 94.1989 214.381 67.7105C214.381 41.2221 192.928 19.749 166.464 19.749C140 19.749 118.547 41.2221 118.547 67.7105C118.547 94.1989 140 115.672 166.464 115.672Z" fill="#2F2E41"/>
<path d="M128.857 37.9526C137.113 28.6584 148.655 22.9386 161.045 22.0004C173.434 21.0621 185.704 24.9787 195.264 32.9237C194.872 32.5509 194.484 32.1751 194.077 31.8128C184.579 23.3615 172.116 19.0328 159.43 19.7791C146.743 20.5254 134.873 26.2855 126.429 35.7922C117.986 45.2989 113.661 57.7735 114.407 70.4718C115.152 83.17 120.907 95.0517 130.405 103.503C130.812 103.865 131.23 104.207 131.646 104.553C122.643 95.9806 117.32 84.243 116.8 71.8169C116.279 59.3909 120.603 47.2485 128.857 37.9526Z" fill="#2F2E41"/>
<path d="M166.058 115.265C183.102 115.265 196.919 101.435 196.919 84.375C196.919 67.3147 183.102 53.4846 166.058 53.4846C149.013 53.4846 135.196 67.3147 135.196 84.375C135.196 101.435 149.013 115.265 166.058 115.265Z" fill="#A0616A"/>
<path d="M144.13 94.1299C144.13 94.1299 148.19 131.524 141.693 135.588C135.196 139.653 179.052 145.343 179.052 145.343C179.052 145.343 172.555 104.698 188.798 94.1299L144.13 94.1299Z" fill="#A0616A"/>
<path d="M183.113 129.085C183.113 129.085 195.206 123.432 177.789 125.446C160.373 127.459 145.346 119.736 145.346 119.736C145.346 119.736 140.069 114.452 139.257 120.143C138.445 125.833 141.693 136.401 123.826 138.027C105.959 139.653 89.7156 134.775 83.2185 146.969C76.7213 159.162 79.9699 212.001 79.9699 212.001C79.9699 212.001 92.1521 255.898 101.898 262.401C111.644 268.905 196.919 259.963 196.919 259.963L221.284 216.066V164.853C221.284 164.853 218.035 146.969 195.295 151.846C195.295 151.846 180.676 148.595 181.488 141.278C182.301 133.962 183.113 129.085 183.113 129.085Z" fill="#D0CDE1"/>
<path d="M105.121 293.466C105.623 291.277 105.959 290.039 105.959 290.039L105.699 288.258L103.023 270.072L101.898 262.4C111.642 258.336 114.08 239.638 114.08 239.638L114.448 239.418L116.11 238.423V238.418L122.08 234.834L122.201 234.762L124.613 236.368L129.511 239.638C135.933 244.435 143.285 247.838 151.095 249.629C158.906 251.42 167.004 251.561 174.872 250.041C178.534 249.413 182.115 248.378 185.548 246.955L197.362 243.012L197.73 242.891L198.093 242.944L205.022 243.994L205.147 244.017L205.721 244.102L204.116 255.205L201.79 271.341C207.935 274.598 213.398 280.717 218.176 288.258C219.234 289.927 220.259 291.663 221.251 293.466C222.541 295.799 223.774 298.226 224.948 300.711C225.092 301.007 225.231 301.308 225.369 301.608C225.822 302.582 226.27 303.564 226.705 304.551H102.97C103.131 303.56 103.292 302.613 103.449 301.703C103.457 301.672 103.463 301.64 103.467 301.608C103.525 301.303 103.579 301.007 103.628 300.711C104.175 297.751 104.704 295.279 105.121 293.466Z" fill="#2F2E41"/>
<path d="M100.274 137.214C100.274 137.214 109.207 153.472 105.959 173.795C102.71 194.117 115.705 244.517 115.705 244.517L125.45 242.079C125.45 242.079 118.953 199.808 120.577 190.053C122.202 180.298 122.202 142.091 114.08 137.214C105.959 132.336 100.274 137.214 100.274 137.214Z" fill="#2F2E41"/>
<path d="M194.724 154.109L198.138 244.111L204.635 248.176C204.635 248.176 213.975 149.407 209.102 149.407H199.187C198.581 149.407 197.981 149.531 197.424 149.77C196.867 150.01 196.364 150.36 195.947 150.8C195.529 151.239 195.206 151.76 194.996 152.329C194.785 152.898 194.693 153.503 194.724 154.109Z" fill="#2F2E41"/>
<path d="M120.171 242.485C122.414 242.485 124.232 240.665 124.232 238.421C124.232 236.176 122.414 234.356 120.171 234.356C117.929 234.356 116.111 236.176 116.111 238.421C116.111 240.665 117.929 242.485 120.171 242.485Z" fill="#6C63FF"/>
<path d="M201.386 246.55C203.629 246.55 205.447 244.73 205.447 242.485C205.447 240.24 203.629 238.421 201.386 238.421C199.143 238.421 197.325 240.24 197.325 242.485C197.325 244.73 199.143 246.55 201.386 246.55Z" fill="#6C63FF"/>
<path d="M139.663 45.7617V76.6524H146.81L155.906 66.8976L154.688 76.6524H186.281L184.332 66.8976L188.23 76.6524H193.265V45.7617H139.663Z" fill="#2F2E41"/>
<path d="M134.79 82.3427C136.136 82.3427 137.226 80.341 137.226 77.8717C137.226 75.4025 136.136 73.4008 134.79 73.4008C133.444 73.4008 132.354 75.4025 132.354 77.8717C132.354 80.341 133.444 82.3427 134.79 82.3427Z" fill="#A0616A"/>
<path d="M197.325 82.3427C198.671 82.3427 199.762 80.341 199.762 77.8717C199.762 75.4025 198.671 73.4008 197.325 73.4008C195.98 73.4008 194.889 75.4025 194.889 77.8717C194.889 80.341 195.98 82.3427 197.325 82.3427Z" fill="#A0616A"/>
<path d="M213.975 242.079C213.975 242.079 177.022 235.169 174.585 247.363C172.149 259.556 215.599 254.272 215.599 254.272L213.975 242.079Z" fill="#A0616A"/>
<path d="M213.162 158.349C213.162 158.349 301.687 229.072 285.444 246.143C269.201 263.214 207.477 258.337 207.477 258.337L211.538 238.014L247.273 233.95L229.405 216.066L213.162 217.691V158.349Z" fill="#D0CDE1"/>
<path d="M82.4065 276.221L93.7766 285.163C93.7766 285.163 101.898 310.363 114.08 303.047C126.263 295.73 102.71 269.718 102.71 269.718L88.9037 264.84L82.4065 276.221Z" fill="#A0616A"/>
<path d="M93.7765 145.343L82.4371 148.758C82.4371 148.758 3.62803 207.124 0.379436 223.382C-2.86916 239.64 15.8103 248.582 15.8103 248.582L86.4672 281.911L93.7765 262.401L60.4784 245.33C60.4784 245.33 62.9149 240.453 53.1691 239.64C43.4233 238.827 41.799 228.259 41.799 228.259C41.799 228.259 61.2906 198.182 71.8485 204.685C82.4064 211.188 85.6551 216.066 85.6551 216.066L93.7765 145.343Z" fill="#D0CDE1"/>
<path d="M255.51 296.252V298.975C255.512 299.723 255.373 300.464 255.102 301.16C254.982 301.47 254.836 301.77 254.667 302.057C254.133 302.955 253.375 303.698 252.468 304.214C251.56 304.729 250.535 305 249.491 305H49.3531C48.3095 305 47.2837 304.729 46.3762 304.214C45.4687 303.698 44.7107 302.955 44.1766 302.057C44.0076 301.77 43.8622 301.47 43.7418 301.16C43.4708 300.464 43.3325 299.723 43.334 298.975V296.252C43.3338 295.461 43.4893 294.677 43.7917 293.946C44.0942 293.215 44.5375 292.551 45.0965 291.992C45.6555 291.432 46.3191 290.988 47.0495 290.686C47.7798 290.383 48.5626 290.227 49.3531 290.227H60.8895V288.958C60.8894 288.925 60.8959 288.892 60.9085 288.862C60.9211 288.831 60.9395 288.803 60.9629 288.78C60.9862 288.757 61.0139 288.738 61.0443 288.726C61.0748 288.713 61.1075 288.707 61.1405 288.707H67.1596C67.1926 288.707 67.2252 288.713 67.2557 288.726C67.2862 288.738 67.3139 288.757 67.3372 288.78C67.3605 288.803 67.379 288.831 67.3916 288.862C67.4042 288.892 67.4106 288.925 67.4106 288.958V290.227H71.1709V288.958C71.1708 288.925 71.1773 288.892 71.1899 288.862C71.2025 288.831 71.2209 288.803 71.2443 288.78C71.2676 288.757 71.2953 288.738 71.3257 288.726C71.3562 288.713 71.3889 288.707 71.4219 288.707H77.441C77.474 288.707 77.5066 288.713 77.5371 288.726C77.5676 288.738 77.5953 288.757 77.6186 288.78C77.6419 288.803 77.6604 288.831 77.673 288.862C77.6856 288.892 77.692 288.925 77.692 288.958V290.227H81.4568V288.958C81.4567 288.925 81.4632 288.892 81.4758 288.862C81.4884 288.831 81.5069 288.803 81.5302 288.78C81.5535 288.757 81.5812 288.738 81.6117 288.726C81.6422 288.713 81.6748 288.707 81.7078 288.707H87.7269C87.7599 288.707 87.7926 288.713 87.823 288.726C87.8535 288.738 87.8812 288.757 87.9045 288.78C87.9278 288.803 87.9463 288.831 87.9589 288.862C87.9715 288.892 87.978 288.925 87.9779 288.958V290.227H91.7382V288.958C91.7382 288.925 91.7446 288.892 91.7572 288.862C91.7698 288.831 91.7883 288.803 91.8116 288.78C91.8349 288.757 91.8626 288.738 91.8931 288.726C91.9236 288.713 91.9562 288.707 91.9892 288.707H98.0083C98.0413 288.707 98.074 288.713 98.1045 288.726C98.1349 288.738 98.1626 288.757 98.1859 288.78C98.2092 288.803 98.2277 288.831 98.2403 288.862C98.2529 288.892 98.2594 288.925 98.2593 288.958V290.227H102.02V288.958C102.02 288.925 102.026 288.892 102.039 288.862C102.051 288.831 102.07 288.803 102.093 288.78C102.116 288.757 102.144 288.738 102.174 288.726C102.205 288.713 102.238 288.707 102.271 288.707H108.29C108.323 288.707 108.355 288.713 108.386 288.726C108.416 288.738 108.444 288.757 108.467 288.78C108.491 288.803 108.509 288.831 108.522 288.862C108.534 288.892 108.541 288.925 108.541 288.958V290.227H112.305V288.958C112.305 288.925 112.312 288.892 112.324 288.862C112.337 288.831 112.356 288.803 112.379 288.78C112.402 288.757 112.43 288.738 112.46 288.726C112.491 288.713 112.523 288.707 112.556 288.707H118.576C118.609 288.707 118.641 288.713 118.672 288.726C118.702 288.738 118.73 288.757 118.753 288.78C118.777 288.803 118.795 288.831 118.808 288.862C118.82 288.892 118.827 288.925 118.827 288.958V290.227H122.587V288.958C122.587 288.925 122.593 288.892 122.606 288.862C122.618 288.831 122.637 288.803 122.66 288.78C122.684 288.757 122.711 288.738 122.742 288.726C122.772 288.713 122.805 288.707 122.838 288.707H169.987C170.02 288.707 170.053 288.713 170.083 288.726C170.114 288.738 170.141 288.757 170.165 288.78C170.188 288.803 170.207 288.831 170.219 288.862C170.232 288.892 170.238 288.925 170.238 288.958V290.227H174.003V288.958C174.003 288.925 174.009 288.892 174.022 288.862C174.034 288.831 174.053 288.803 174.076 288.78C174.1 288.757 174.127 288.738 174.158 288.726C174.188 288.713 174.221 288.707 174.254 288.707H180.273C180.339 288.707 180.403 288.734 180.45 288.781C180.497 288.828 180.523 288.891 180.524 288.958V290.227H184.284V288.958C184.284 288.925 184.291 288.892 184.303 288.862C184.316 288.831 184.334 288.803 184.358 288.78C184.381 288.757 184.409 288.738 184.439 288.726C184.47 288.713 184.502 288.707 184.535 288.707H190.554C190.587 288.707 190.62 288.713 190.651 288.726C190.681 288.738 190.709 288.757 190.732 288.78C190.755 288.803 190.774 288.831 190.786 288.862C190.799 288.892 190.805 288.925 190.805 288.958V290.227H194.566V288.958C194.566 288.925 194.572 288.892 194.585 288.862C194.597 288.831 194.616 288.803 194.639 288.78C194.662 288.757 194.69 288.738 194.721 288.726C194.751 288.713 194.784 288.707 194.817 288.707H200.836C200.869 288.707 200.901 288.713 200.932 288.726C200.962 288.738 200.99 288.757 201.013 288.78C201.037 288.803 201.055 288.831 201.068 288.862C201.08 288.892 201.087 288.925 201.087 288.958V290.227H204.852V288.958C204.852 288.925 204.858 288.892 204.871 288.862C204.883 288.831 204.902 288.803 204.925 288.78C204.948 288.757 204.976 288.738 205.006 288.726C205.037 288.713 205.07 288.707 205.103 288.707H211.122C211.188 288.707 211.25 288.734 211.297 288.781C211.343 288.828 211.369 288.892 211.368 288.958V290.227H215.133V288.958C215.133 288.925 215.139 288.892 215.152 288.862C215.165 288.831 215.183 288.803 215.206 288.78C215.23 288.757 215.257 288.738 215.288 288.726C215.318 288.713 215.351 288.707 215.384 288.707H221.403C221.436 288.707 221.469 288.713 221.499 288.726C221.53 288.738 221.557 288.757 221.581 288.78C221.604 288.803 221.622 288.831 221.635 288.862C221.648 288.892 221.654 288.925 221.654 288.958V290.227H225.414V288.958C225.414 288.925 225.421 288.892 225.433 288.862C225.446 288.831 225.464 288.803 225.488 288.78C225.511 288.757 225.539 288.738 225.569 288.726C225.6 288.713 225.632 288.707 225.665 288.707H231.685C231.718 288.707 231.75 288.713 231.781 288.726C231.811 288.738 231.839 288.757 231.862 288.78C231.885 288.803 231.904 288.831 231.917 288.862C231.929 288.892 231.936 288.925 231.936 288.958V290.227H249.491C250.281 290.227 251.064 290.383 251.795 290.686C252.525 290.988 253.189 291.432 253.748 291.992C254.307 292.551 254.75 293.215 255.052 293.946C255.355 294.677 255.51 295.461 255.51 296.252Z" fill="#3F3D56"/>
<path d="M239.394 181.574H164.797V180.035H130.971V181.574H56.0665C54.7282 181.574 53.4447 182.106 52.4984 183.053C51.5521 184 51.0205 185.285 51.0205 186.624V288.866C51.0205 290.206 51.5521 291.491 52.4984 292.438C53.4447 293.385 54.7282 293.917 56.0665 293.917H239.394C240.733 293.917 242.016 293.385 242.962 292.438C243.909 291.491 244.44 290.206 244.44 288.866V186.624C244.44 185.285 243.909 184 242.962 183.053C242.016 182.106 240.733 181.574 239.394 181.574Z" fill="#3F3D56"/>
<path d="M147.877 228.484C154.065 228.484 159.082 223.463 159.082 217.269C159.082 211.075 154.065 206.054 147.877 206.054C141.689 206.054 136.673 211.075 136.673 217.269C136.673 223.463 141.689 228.484 147.877 228.484Z" stroke="#D0CDE1" stroke-width="2" stroke-miterlimit="10"/>
<path d="M144.292 232.521C150.48 232.521 155.497 227.5 155.497 221.306C155.497 215.112 150.48 210.091 144.292 210.091C138.104 210.091 133.087 215.112 133.087 221.306C133.087 227.5 138.104 232.521 144.292 232.521Z" fill="#D0CDE1"/>
<path d="M671 301.652H8.26343V303.048H671V301.652Z" fill="#3F3D56"/>
</g>
<defs>
<clipPath id="clip0">
<rect width="671" height="305" fill="white"/>
</clipPath>
</defs>
</svg>
