<svg width="670" height="427" viewBox="0 0 670 427" fill="none" xmlns="http://www.w3.org/2000/svg">
<g clip-path="url(#clip0)">
<path d="M108.757 198.745C118.557 198.745 126.502 190.924 126.502 181.276C126.502 171.628 118.557 163.807 108.757 163.807C98.957 163.807 91.0125 171.628 91.0125 181.276C91.0125 190.924 98.957 198.745 108.757 198.745Z" fill="#FFB8B8"/>
<path d="M48.7982 390.612L53.2913 398.127L84.8722 384.642L78.2405 373.552L48.7982 390.612Z" fill="#FFB8B8"/>
<path d="M50.1444 387.252L58.9928 402.05L58.9932 402.051C59.7337 403.29 60.2191 404.66 60.4218 406.083C60.6245 407.506 60.5404 408.954 60.1744 410.346C59.8084 411.737 59.1677 413.044 58.2887 414.191C57.4098 415.338 56.3098 416.304 55.0517 417.033L54.7404 417.213L40.2531 392.984L50.1444 387.252Z" fill="#2F2E41"/>
<path d="M100.858 417.684L109.715 417.683L113.929 384.05L100.856 384.051L100.858 417.684Z" fill="#FFB8B8"/>
<path d="M98.5985 414.837L116.042 414.836H116.043C117.502 414.836 118.948 415.119 120.297 415.669C121.645 416.219 122.871 417.025 123.903 418.042C124.935 419.058 125.754 420.264 126.313 421.592C126.871 422.92 127.159 424.343 127.159 425.78V426.135L98.5991 426.136L98.5985 414.837Z" fill="#2F2E41"/>
<path d="M65.2479 397.307C64.7381 397.307 64.2355 397.189 63.7806 396.963C63.3257 396.736 62.9314 396.408 62.6296 396.003L54.0873 384.582C53.8267 384.233 53.6405 383.836 53.5401 383.415C53.4397 382.994 53.4271 382.557 53.503 382.131C53.5789 381.705 53.7419 381.298 53.9819 380.936C54.222 380.573 54.5342 380.263 54.8997 380.022L92.912 355.028L69.9759 295.658L119.024 299.642L120.676 350.662C120.831 355.309 119.7 359.909 117.403 363.971C115.107 368.033 111.732 371.404 107.639 373.723L66.8722 396.877C66.3786 397.158 65.8183 397.307 65.2479 397.307Z" fill="#2F2E41"/>
<path d="M101.125 410.856C100.284 410.854 99.476 410.532 98.8713 409.956C98.2665 409.381 97.9119 408.597 97.882 407.769L96.0845 358.066L118.343 356.912L116.57 406.972C116.544 407.765 116.219 408.52 115.658 409.09C115.097 409.66 114.341 410.003 113.536 410.054L101.346 410.849C101.272 410.854 101.198 410.856 101.125 410.856Z" fill="#2F2E41"/>
<path d="M124.701 309.512C119.038 309.512 99.2575 303.242 92.3906 301.006C91.3633 301.816 85.7199 305.97 79.1324 305.211C75.0677 304.741 71.4894 302.476 68.4969 298.478C61.8884 289.649 70.0506 251.784 78.0617 221.574C79.6677 215.468 83.616 210.212 89.0766 206.912C94.5371 203.612 101.085 202.525 107.343 203.879C111.878 204.865 116.045 207.076 119.375 210.264C122.704 213.453 125.064 217.492 126.19 221.929C127.699 227.973 126.401 235.082 125.454 240.274C125.008 242.715 124.656 244.643 124.777 245.591C125.242 249.252 127.825 306.68 126.164 309.133C125.987 309.394 125.475 309.512 124.701 309.512Z" fill="#EF8538"/>
<path d="M103.984 309.614C104.894 308.947 105.644 308.092 106.182 307.108C106.72 306.125 107.033 305.037 107.098 303.922C107.162 302.807 106.978 301.691 106.558 300.654C106.137 299.616 105.491 298.682 104.664 297.917L105.015 228.327L88.3652 231.056L93.2558 298.603C92.0426 300.056 91.4128 301.896 91.4858 303.775C91.5587 305.654 92.3294 307.442 93.6517 308.799C94.974 310.156 96.7562 310.989 98.6604 311.139C100.565 311.289 102.459 310.747 103.984 309.614Z" fill="#FFB8B8"/>
<path d="M107.834 273.018H89.9013C89.0449 273.015 88.2239 272.681 87.6156 272.088C87.0072 271.495 86.6605 270.689 86.6501 269.846L86.2099 221.986C86.1946 220.331 86.5128 218.689 87.1461 217.156C87.7793 215.623 88.715 214.229 89.8991 213.054C91.0831 211.879 92.4921 210.947 94.0444 210.312C95.5966 209.676 97.2615 209.35 98.9426 209.352C100.624 209.354 102.288 209.684 103.839 210.323C105.389 210.962 106.796 211.898 107.977 213.076C109.158 214.253 110.09 215.65 110.72 217.184C111.349 218.719 111.663 220.361 111.644 222.016L111.085 269.854C111.073 270.696 110.725 271.499 110.117 272.09C109.509 272.682 108.689 273.015 107.834 273.018Z" fill="#EF8538"/>
<path d="M104.239 198.672C96.1145 198.687 88.4498 192.365 87.0419 184.488C86.5379 181.393 86.7651 178.226 87.7061 175.232C88.7277 171.823 90.4797 168.67 92.844 165.985C95.2083 163.299 98.13 161.144 101.412 159.665C104.694 158.185 108.26 157.415 111.87 157.407C115.48 157.399 119.049 158.153 122.338 159.618C124.512 160.586 126.652 161.977 127.648 164.111C128.643 166.246 128.02 169.229 125.843 170.189C124.42 170.817 122.635 170.509 121.373 171.41C119.56 172.704 120.027 175.457 120.836 177.513C121.646 179.568 122.561 182.055 121.204 183.809C119.94 185.443 117.412 185.392 115.421 184.777C113.43 184.162 111.465 183.132 109.39 183.342C106.362 183.647 104.186 186.612 103.784 189.582C103.381 192.551 104.329 195.52 105.265 198.371L104.239 198.672Z" fill="#2F2E41"/>
<path d="M187.121 426.806H0.722476C0.530863 426.806 0.347098 426.731 0.211608 426.597C0.0761172 426.464 0 426.283 0 426.095C0 425.906 0.0761172 425.725 0.211608 425.592C0.347098 425.458 0.530863 425.383 0.722476 425.383H187.121C187.313 425.383 187.497 425.458 187.632 425.592C187.768 425.725 187.844 425.906 187.844 426.095C187.844 426.283 187.768 426.464 187.632 426.597C187.497 426.731 187.313 426.806 187.121 426.806Z" fill="#CCCCCC"/>
<path d="M657.541 309.069H194.55C191.39 309.065 188.36 307.828 186.125 305.628C183.89 303.428 182.633 300.445 182.63 297.333V16.2832C182.632 14.0038 183.553 11.8184 185.19 10.2066C186.828 8.59475 189.047 7.68805 191.363 7.68542H660.577C662.933 7.68806 665.191 8.61041 666.857 10.2501C668.522 11.8898 669.459 14.113 669.462 16.4318V297.333C669.458 300.445 668.201 303.428 665.966 305.628C663.731 307.828 660.701 309.065 657.541 309.069Z" fill="#F2F2F2"/>
<path d="M642.571 294.252H211.076C204.751 294.252 199.605 289.508 199.605 283.677V38.9351C199.605 34.6106 203.418 31.0923 208.106 31.0923H645.401C650.166 31.0923 654.043 34.6686 654.043 39.0642V283.677C654.043 289.508 648.896 294.252 642.571 294.252Z" fill="white"/>
<path d="M669.296 17.7456H182.462V11.7709C182.467 8.6492 183.729 5.65675 185.972 3.45004C188.215 1.24333 191.256 0.00258848 194.427 0H657.331C660.503 0.00256215 663.543 1.2433 665.786 3.45001C668.029 5.65672 669.291 8.64919 669.296 11.7709V17.7456Z" fill="#3F3D56"/>
<path d="M204.206 11.9371C205.915 11.9371 207.3 10.5731 207.3 8.89054C207.3 7.20798 205.915 5.84399 204.206 5.84399C202.496 5.84399 201.111 7.20798 201.111 8.89054C201.111 10.5731 202.496 11.9371 204.206 11.9371Z" fill="white"/>
<path d="M215.952 11.9371C217.661 11.9371 219.047 10.5731 219.047 8.89054C219.047 7.20798 217.661 5.84399 215.952 5.84399C214.243 5.84399 212.857 7.20798 212.857 8.89054C212.857 10.5731 214.243 11.9371 215.952 11.9371Z" fill="white"/>
<path d="M227.699 11.9371C229.408 11.9371 230.793 10.5731 230.793 8.89054C230.793 7.20798 229.408 5.84399 227.699 5.84399C225.99 5.84399 224.604 7.20798 224.604 8.89054C224.604 10.5731 225.99 11.9371 227.699 11.9371Z" fill="white"/>
<path d="M416.587 84.6055H332.196C330.938 84.6055 329.731 84.1135 328.842 83.2377C327.952 82.3618 327.452 81.174 327.452 79.9354C327.452 78.6968 327.952 77.5089 328.842 76.6331C329.731 75.7573 330.938 75.2653 332.196 75.2653H416.587C417.845 75.2653 419.052 75.7573 419.941 76.6331C420.831 77.5089 421.331 78.6968 421.331 79.9354C421.331 81.174 420.831 82.3618 419.941 83.2377C419.052 84.1135 417.845 84.6055 416.587 84.6055Z" fill="#CCCCCC"/>
<path d="M521.452 84.6055H437.061C435.802 84.6055 434.596 84.1135 433.706 83.2377C432.816 82.3618 432.317 81.174 432.317 79.9354C432.317 78.6968 432.816 77.5089 433.706 76.6331C434.596 75.7573 435.802 75.2653 437.061 75.2653H521.452C522.71 75.2653 523.917 75.7573 524.806 76.6331C525.696 77.5089 526.196 78.6968 526.196 79.9354C526.196 81.174 525.696 82.3618 524.806 83.2377C523.917 84.1135 522.71 84.6055 521.452 84.6055Z" fill="#CCCCCC"/>
<path d="M521.452 102.303H374.641C373.383 102.303 372.176 101.811 371.287 100.935C370.397 100.059 369.897 98.8712 369.897 97.6326C369.897 96.394 370.397 95.2062 371.287 94.3304C372.176 93.4545 373.383 92.9625 374.641 92.9625H521.452C522.71 92.9625 523.916 93.4545 524.806 94.3304C525.696 95.2062 526.195 96.394 526.195 97.6326C526.195 98.8712 525.696 100.059 524.806 100.935C523.916 101.811 522.71 102.303 521.452 102.303Z" fill="#CCCCCC"/>
<path d="M416.587 66.6624H332.196C330.939 66.6608 329.734 66.1681 328.845 65.2925C327.957 64.4168 327.458 63.2298 327.458 61.9923C327.458 60.7547 327.957 59.5677 328.845 58.692C329.734 57.8164 330.939 57.3237 332.196 57.3221H416.587C417.211 57.3214 417.828 57.4416 418.404 57.676C418.98 57.9103 419.504 58.2542 419.945 58.6879C420.386 59.1217 420.736 59.6368 420.975 60.2037C421.214 60.7707 421.337 61.3785 421.337 61.9923C421.337 62.606 421.214 63.2138 420.975 63.7808C420.736 64.3477 420.386 64.8628 419.945 65.2966C419.504 65.7303 418.98 66.0742 418.404 66.3085C417.828 66.5429 417.211 66.6631 416.587 66.6624Z" fill="#CCCCCC"/>
<path d="M463.027 66.9082H439.058C437.8 66.9082 436.593 66.4162 435.704 65.5404C434.814 64.6646 434.314 63.4767 434.314 62.2381C434.314 60.9995 434.814 59.8116 435.704 58.9358C436.593 58.06 437.8 57.568 439.058 57.568H463.027C464.285 57.568 465.492 58.06 466.382 58.9358C467.271 59.8116 467.771 60.9995 467.771 62.2381C467.771 63.4767 467.271 64.6646 466.382 65.5404C465.492 66.4162 464.285 66.9082 463.027 66.9082Z" fill="#CCCCCC"/>
<path d="M356.165 102.303H332.196C330.939 102.301 329.734 101.809 328.845 100.933C327.957 100.057 327.458 98.8702 327.458 97.6326C327.458 96.395 327.957 95.208 328.845 94.3324C329.734 93.4567 330.939 92.9641 332.196 92.9625H356.165C356.789 92.9618 357.406 93.082 357.982 93.3164C358.559 93.5507 359.082 93.8946 359.523 94.3283C359.964 94.7621 360.314 95.2772 360.553 95.8441C360.792 96.4111 360.915 97.0189 360.915 97.6326C360.915 98.2464 360.792 98.8541 360.553 99.4211C360.314 99.9881 359.964 100.503 359.523 100.937C359.082 101.371 358.559 101.715 357.982 101.949C357.406 102.183 356.789 102.303 356.165 102.303Z" fill="#CCCCCC"/>
<path d="M416.587 250.325H332.196C330.938 250.325 329.731 249.833 328.842 248.957C327.952 248.081 327.452 246.893 327.452 245.655C327.452 244.416 327.952 243.228 328.842 242.352C329.731 241.477 330.938 240.985 332.196 240.985H416.587C417.21 240.985 417.827 241.105 418.402 241.34C418.978 241.575 419.501 241.919 419.941 242.352C420.382 242.786 420.731 243.301 420.97 243.868C421.208 244.434 421.331 245.041 421.331 245.655C421.331 246.268 421.208 246.875 420.97 247.442C420.731 248.009 420.382 248.523 419.941 248.957C419.501 249.391 418.978 249.735 418.402 249.969C417.827 250.204 417.21 250.325 416.587 250.325Z" fill="#CCCCCC"/>
<path d="M521.452 250.325H437.061C435.802 250.325 434.596 249.833 433.706 248.957C432.816 248.081 432.317 246.893 432.317 245.655C432.317 244.416 432.816 243.228 433.706 242.352C434.596 241.477 435.802 240.985 437.061 240.985H521.452C522.075 240.985 522.692 241.105 523.267 241.34C523.843 241.575 524.366 241.919 524.806 242.352C525.247 242.786 525.596 243.301 525.835 243.868C526.073 244.434 526.196 245.041 526.196 245.655C526.196 246.268 526.073 246.875 525.835 247.442C525.596 248.009 525.247 248.523 524.806 248.957C524.366 249.391 523.843 249.735 523.267 249.969C522.692 250.204 522.075 250.325 521.452 250.325Z" fill="#CCCCCC"/>
<path d="M521.452 268.022H374.641C373.383 268.022 372.176 267.53 371.287 266.654C370.397 265.779 369.897 264.591 369.897 263.352C369.897 262.114 370.397 260.926 371.287 260.05C372.176 259.174 373.383 258.682 374.641 258.682H521.452C522.075 258.681 522.693 258.801 523.269 259.036C523.845 259.27 524.369 259.614 524.81 260.048C525.251 260.482 525.601 260.997 525.84 261.564C526.078 262.131 526.201 262.738 526.201 263.352C526.201 263.966 526.078 264.574 525.84 265.141C525.601 265.708 525.251 266.223 524.81 266.656C524.369 267.09 523.845 267.434 523.269 267.668C522.693 267.903 522.075 268.023 521.452 268.022Z" fill="#CCCCCC"/>
<path d="M416.587 232.382H332.196C330.938 232.382 329.731 231.89 328.842 231.014C327.952 230.138 327.452 228.95 327.452 227.712C327.452 226.473 327.952 225.285 328.842 224.409C329.731 223.534 330.938 223.042 332.196 223.042H416.587C417.845 223.042 419.052 223.534 419.941 224.409C420.831 225.285 421.331 226.473 421.331 227.712C421.331 228.95 420.831 230.138 419.941 231.014C419.052 231.89 417.845 232.382 416.587 232.382Z" fill="#CCCCCC"/>
<path d="M463.027 232.628H439.058C437.8 232.628 436.593 232.136 435.704 231.26C434.814 230.384 434.314 229.196 434.314 227.957C434.314 226.719 434.814 225.531 435.704 224.655C436.593 223.779 437.8 223.287 439.058 223.287H463.027C464.285 223.287 465.492 223.779 466.382 224.655C467.271 225.531 467.771 226.719 467.771 227.957C467.771 229.196 467.271 230.384 466.382 231.26C465.492 232.136 464.285 232.628 463.027 232.628Z" fill="#CCCCCC"/>
<path d="M356.165 268.022H332.196C330.938 268.022 329.731 267.53 328.842 266.654C327.952 265.779 327.452 264.591 327.452 263.352C327.452 262.114 327.952 260.926 328.842 260.05C329.731 259.174 330.938 258.682 332.196 258.682H356.165C356.789 258.681 357.406 258.801 357.982 259.036C358.558 259.27 359.082 259.614 359.523 260.048C359.964 260.482 360.314 260.997 360.553 261.564C360.792 262.131 360.915 262.738 360.915 263.352C360.915 263.966 360.792 264.574 360.553 265.141C360.314 265.708 359.964 266.223 359.523 266.656C359.082 267.09 358.558 267.434 357.982 267.668C357.406 267.903 356.789 268.023 356.165 268.022Z" fill="#CCCCCC"/>
<path d="M394.547 200.187C392.756 200.191 391.036 199.499 389.761 198.26L358.039 167.421C357.416 166.815 356.921 166.094 356.584 165.299C356.246 164.504 356.073 163.651 356.073 162.79C356.073 161.928 356.246 161.075 356.584 160.28C356.921 159.485 357.416 158.764 358.039 158.158L389.633 127.444C390.95 126.17 392.723 125.459 394.568 125.465C396.414 125.471 398.182 126.193 399.49 127.474C400.8 128.766 401.535 130.516 401.535 132.341C401.535 134.166 400.8 135.917 399.49 137.209L376.013 160.322C375.281 161.044 374.871 162.021 374.871 163.041C374.871 164.061 375.281 165.038 376.013 165.76L399.363 188.748C400.317 189.685 400.966 190.879 401.23 192.18C401.493 193.48 401.358 194.829 400.842 196.054C400.326 197.279 399.453 198.326 398.332 199.062C397.211 199.798 395.894 200.189 394.547 200.187V200.187Z" fill="#EF8538"/>
<path d="M445.095 200.187C443.748 200.189 442.431 199.798 441.31 199.062C440.189 198.326 439.315 197.279 438.8 196.054C438.284 194.829 438.149 193.48 438.412 192.18C438.676 190.879 439.325 189.685 440.279 188.748L463.629 165.76C464.36 165.039 464.771 164.061 464.771 163.041C464.771 162.022 464.36 161.044 463.629 160.322L440.151 137.209C439.502 136.57 438.987 135.811 438.636 134.976C438.284 134.14 438.104 133.245 438.104 132.341C438.104 131.438 438.284 130.542 438.636 129.707C438.987 128.872 439.502 128.113 440.152 127.474C441.46 126.193 443.228 125.471 445.074 125.465C446.919 125.459 448.692 126.17 450.009 127.444L481.603 158.158C482.226 158.764 482.721 159.485 483.058 160.28C483.396 161.075 483.569 161.928 483.569 162.79C483.569 163.651 483.396 164.504 483.058 165.299C482.721 166.094 482.226 166.815 481.603 167.421L449.88 198.26C448.606 199.498 446.886 200.191 445.095 200.187Z" fill="#EF8538"/>
</g>
<defs>
<clipPath id="clip0">
<rect width="669.462" height="426.806" fill="white"/>
</clipPath>
</defs>
</svg>
