<svg width="470" height="399" viewBox="0 0 470 399" fill="none" xmlns="http://www.w3.org/2000/svg">
<g clip-path="url(#clip0)">
<path d="M400.463 136.73C405.492 146.615 409.455 156.81 420.547 156.81C425.873 156.81 430.981 154.695 434.748 150.929C438.514 147.163 440.63 142.056 440.63 136.73C440.63 131.405 438.514 126.298 434.748 122.532C430.981 118.766 425.873 116.651 420.547 116.651C409.274 116.509 391.104 118.332 400.463 136.73Z" fill="#2F2E41"/>
<path d="M416.249 378.217L407.666 380.129L396.204 347.94L408.872 345.117L416.249 378.217Z" fill="#A0616A"/>
<path d="M420.292 386.048L392.617 392.214L392.539 391.864C392.224 390.45 392.19 388.987 392.44 387.56C392.69 386.133 393.219 384.769 393.997 383.546C394.774 382.323 395.784 381.265 396.971 380.432C398.157 379.6 399.496 379.009 400.91 378.694L400.911 378.694L417.814 374.928L420.292 386.048Z" fill="#2F2E41"/>
<path d="M441.746 389.722H432.952L428.769 355.81L441.747 355.811L441.746 389.722Z" fill="#A0616A"/>
<path d="M443.988 398.245L415.634 398.244V397.886C415.634 396.437 415.92 395.002 416.474 393.663C417.029 392.324 417.842 391.108 418.867 390.083C419.891 389.059 421.108 388.246 422.447 387.692C423.786 387.137 425.221 386.852 426.67 386.852H426.671L443.989 386.852L443.988 398.245Z" fill="#2F2E41"/>
<path d="M441.804 371.952H430.581C429.802 371.949 429.049 371.665 428.462 371.153C427.874 370.64 427.491 369.933 427.383 369.161L417.21 290.479C417.176 290.233 417.058 290.007 416.876 289.838C416.694 289.669 416.459 289.568 416.212 289.552C415.964 289.537 415.718 289.607 415.516 289.752C415.315 289.897 415.169 290.107 415.105 290.347L409.076 312.814L414.51 363.983C414.603 364.772 414.4 365.567 413.943 366.216C413.485 366.864 412.804 367.322 412.03 367.499L403.128 369.554C402.337 369.732 401.507 369.608 400.803 369.206C400.099 368.804 399.571 368.152 399.324 367.38L384.987 317.635C383.832 313.989 383.435 310.146 383.82 306.342L388.306 261.496L388.646 261.513L448.532 264.398L445.03 368.837C445.004 369.674 444.652 370.468 444.05 371.049C443.447 371.631 442.642 371.955 441.804 371.952Z" fill="#2F2E41"/>
<path d="M419.558 157.201C429.288 157.201 437.175 149.315 437.175 139.588C437.175 129.86 429.288 121.974 419.558 121.974C409.829 121.974 401.942 129.86 401.942 139.588C401.942 149.315 409.829 157.201 419.558 157.201Z" fill="#A0616A"/>
<path d="M447.19 269.229C447.132 269.229 447.074 269.227 447.016 269.224L387.307 266.014C386.813 265.988 386.333 265.848 385.902 265.607C385.471 265.366 385.101 265.029 384.821 264.622C384.541 264.215 384.358 263.749 384.286 263.26C384.215 262.772 384.256 262.273 384.408 261.803L389.133 247.131C394.193 231.4 395.057 214.622 391.641 198.455C390.746 194.224 390.765 189.852 391.696 185.629C392.626 181.406 394.448 177.431 397.039 173.968C399.587 170.554 402.835 167.722 406.566 165.664C410.296 163.605 414.423 162.366 418.671 162.031H418.671C418.964 162.007 419.257 161.987 419.552 161.969C424.046 161.703 428.543 162.444 432.714 164.137C436.885 165.83 440.626 168.433 443.663 171.755C446.701 175.078 448.958 179.036 450.271 183.342C451.583 187.647 451.918 192.191 451.251 196.643L447.087 224.592L450.406 265.742C450.442 266.186 450.386 266.633 450.24 267.054C450.095 267.475 449.864 267.862 449.562 268.189C449.26 268.517 448.893 268.778 448.485 268.957C448.077 269.136 447.636 269.228 447.19 269.229Z" fill="#CCCCCC"/>
<path d="M373.717 272.943C374.59 272.352 375.323 271.577 375.864 270.672C376.405 269.767 376.741 268.755 376.849 267.706C376.956 266.657 376.832 265.597 376.486 264.602C376.139 263.606 375.578 262.698 374.843 261.943L386.34 239.038L373.113 240.604L364.223 262.115C363.035 263.434 362.373 265.143 362.361 266.918C362.35 268.693 362.989 270.41 364.16 271.745C365.33 273.08 366.949 273.939 368.711 274.16C370.472 274.381 372.253 273.948 373.717 272.943H373.717Z" fill="#A0616A"/>
<path d="M452.641 276.676C451.879 275.947 451.286 275.06 450.903 274.078C450.521 273.095 450.359 272.041 450.429 270.989C450.498 269.937 450.797 268.913 451.305 267.989C451.813 267.065 452.518 266.264 453.369 265.642L445.863 241.139L458.642 244.893L463.811 267.586C464.761 269.085 465.129 270.88 464.844 272.632C464.559 274.384 463.641 275.971 462.264 277.091C460.887 278.212 459.147 278.788 457.373 278.712C455.6 278.635 453.916 277.911 452.641 276.676V276.676Z" fill="#A0616A"/>
<path d="M451.398 263.84C450.615 263.842 449.858 263.559 449.27 263.042C448.681 262.526 448.302 261.813 448.203 261.036L442.23 215.983L432.7 180.777C432.297 179.289 432.238 177.729 432.527 176.214C432.816 174.7 433.445 173.271 434.367 172.035C435.289 170.8 436.48 169.79 437.85 169.082C439.219 168.374 440.732 167.986 442.273 167.948C444.715 167.897 447.095 168.722 448.981 170.273C450.868 171.825 452.135 174.002 452.554 176.408L466.752 259.556C466.829 260.007 466.809 260.47 466.693 260.914C466.577 261.357 466.368 261.771 466.08 262.127C465.792 262.483 465.432 262.774 465.022 262.98C464.613 263.187 464.164 263.303 463.707 263.323L451.538 263.837C451.492 263.838 451.445 263.84 451.398 263.84Z" fill="#CCCCCC"/>
<path d="M380.118 258.78C379.887 258.779 379.656 258.755 379.431 258.707L367.52 256.167C367.072 256.072 366.649 255.882 366.28 255.61C365.911 255.339 365.603 254.992 365.379 254.592C365.154 254.192 365.018 253.75 364.978 253.293C364.938 252.837 364.995 252.377 365.147 251.944L393.042 172.338C393.86 170.038 395.474 168.106 397.593 166.891C399.711 165.676 402.194 165.259 404.593 165.715C406.106 166.01 407.533 166.645 408.765 167.572C409.997 168.499 411.002 169.694 411.705 171.066C412.407 172.438 412.789 173.952 412.82 175.494C412.852 177.035 412.533 178.563 411.887 179.963L396.591 213.126L383.188 256.504C382.988 257.162 382.581 257.739 382.029 258.149C381.476 258.558 380.806 258.78 380.118 258.78Z" fill="#CCCCCC"/>
<path d="M400.864 129.633C404.89 132.408 409.668 133.884 414.557 133.864C412.813 135.073 410.828 135.89 408.737 136.258C415.238 137.652 421.956 137.69 428.472 136.369C429.92 136.137 431.318 135.657 432.603 134.95C433.244 134.593 433.802 134.104 434.241 133.517C434.681 132.929 434.991 132.256 435.153 131.541C435.586 129.068 433.659 126.821 431.656 125.306C428.589 123.023 425.053 121.451 421.304 120.701C417.555 119.952 413.686 120.046 409.977 120.975C407.556 121.601 405.13 122.659 403.557 124.603C401.984 126.547 401.518 129.545 403.016 131.547L400.864 129.633Z" fill="#2F2E41"/>
<path d="M308.938 1.41541e-09H6.25466C4.59628 0.0014242 3.00624 0.660722 1.83358 1.83316C0.660915 3.00559 0.00146628 4.59535 0 6.25344V301.226C0.00147577 302.884 0.660917 304.474 1.83358 305.647C3.00624 306.819 4.59629 307.478 6.25466 307.48H32.7933V305.694H6.25466C5.06995 305.693 3.93416 305.222 3.09644 304.384C2.25873 303.546 1.7875 302.411 1.78612 301.226V6.25344C1.7875 5.06893 2.25873 3.93333 3.09644 3.09576C3.93416 2.25819 5.06995 1.78705 6.25466 1.78568H308.938C310.124 1.78558 311.261 2.25603 312.101 3.0937C312.94 3.93138 313.412 5.06781 313.414 6.25344V301.226C313.415 302.099 313.158 302.952 312.675 303.679C312.246 304.319 311.665 304.841 310.982 305.199C310.351 305.526 309.649 305.695 308.938 305.694H282.4V307.48H308.938C309.842 307.48 310.736 307.284 311.557 306.905C312.378 306.526 313.107 305.973 313.694 305.285C313.743 305.232 313.789 305.174 313.83 305.113C314.203 304.657 314.506 304.147 314.726 303.6C315.041 302.848 315.202 302.041 315.2 301.226V6.25344C315.198 4.59425 314.538 3.00367 313.363 1.83112C312.189 0.658571 310.598 -3.52548e-05 308.938 1.41541e-09Z" fill="#3F3D56"/>
<path d="M314.303 25.0662H0.891113V26.8538H314.303V25.0662Z" fill="#3F3D56"/>
<path d="M16.0891 18.7735C19.0515 18.7735 21.4531 16.3724 21.4531 13.4104C21.4531 10.4485 19.0515 8.04736 16.0891 8.04736C13.1266 8.04736 10.7251 10.4485 10.7251 13.4104C10.7251 16.3724 13.1266 18.7735 16.0891 18.7735Z" fill="#3F3D56"/>
<path d="M31.5105 18.7735C34.4729 18.7735 36.8745 16.3724 36.8745 13.4104C36.8745 10.4485 34.4729 8.04736 31.5105 8.04736C28.548 8.04736 26.1465 10.4485 26.1465 13.4104C26.1465 16.3724 28.548 18.7735 31.5105 18.7735Z" fill="#3F3D56"/>
<path d="M46.9319 18.7735C49.8943 18.7735 52.2958 16.3724 52.2958 13.4104C52.2958 10.4485 49.8943 8.04736 46.9319 8.04736C43.9694 8.04736 41.5679 10.4485 41.5679 13.4104C41.5679 16.3724 43.9694 18.7735 46.9319 18.7735Z" fill="#3F3D56"/>
<path d="M233.27 66.4469H81.9286C79.4556 66.4469 77.084 65.4647 75.3353 63.7163C73.5866 61.9679 72.6042 59.5967 72.6042 57.1241C72.6042 54.6516 73.5866 52.2803 75.3353 50.5319C77.084 48.7835 79.4556 47.8013 81.9286 47.8013H233.27C235.743 47.8013 238.115 48.7835 239.864 50.5319C241.612 52.2803 242.595 54.6516 242.595 57.1241C242.595 59.5967 241.612 61.9679 239.864 63.7163C238.115 65.4647 235.743 66.4469 233.27 66.4469ZM81.9286 49.2356C79.8361 49.2356 77.8293 50.0667 76.3497 51.5461C74.87 53.0255 74.0388 55.032 74.0388 57.1241C74.0388 59.2163 74.87 61.2227 76.3497 62.7021C77.8293 64.1815 79.8361 65.0126 81.9286 65.0126H233.27C235.363 65.0126 237.37 64.1815 238.849 62.7021C240.329 61.2227 241.16 59.2163 241.16 57.1241C241.16 55.032 240.329 53.0255 238.849 51.5461C237.37 50.0667 235.363 49.2356 233.27 49.2356H81.9286Z" fill="#3F3D56"/>
<path d="M271.644 196.675H43.5552C40.3225 196.671 37.2231 195.386 34.9372 193.1C32.6513 190.815 31.3655 187.716 31.3618 184.484V111.336C31.3655 108.103 32.6513 105.005 34.9372 102.719C37.2231 100.433 40.3225 99.1479 43.5552 99.1442H271.644C274.877 99.1479 277.976 100.433 280.262 102.719C282.548 105.005 283.834 108.103 283.837 111.336V184.484C283.834 187.716 282.548 190.815 280.262 193.1C277.976 195.386 274.877 196.671 271.644 196.675ZM43.5552 100.579C40.7028 100.582 37.9681 101.716 35.9511 103.733C33.9341 105.749 32.7996 108.484 32.7963 111.336V184.484C32.7996 187.336 33.9341 190.07 35.9511 192.086C37.9681 194.103 40.7028 195.237 43.5552 195.241H271.644C274.496 195.237 277.231 194.103 279.248 192.086C281.265 190.07 282.399 187.336 282.403 184.484V111.336C282.399 108.484 281.265 105.749 279.248 103.733C277.231 101.716 274.496 100.582 271.644 100.579H43.5552Z" fill="#3F3D56"/>
<path d="M187.51 143.965H107.894C106.372 143.965 104.913 143.361 103.837 142.285C102.761 141.209 102.156 139.75 102.156 138.228C102.156 136.707 102.761 135.247 103.837 134.171C104.913 133.096 106.372 132.491 107.894 132.491H187.51C189.032 132.491 190.491 133.096 191.567 134.171C192.643 135.247 193.248 136.707 193.248 138.228C193.248 139.75 192.643 141.209 191.567 142.285C190.491 143.361 189.032 143.965 187.51 143.965Z" fill="#EF8538"/>
<path d="M261.388 163.328H107.894C106.372 163.328 104.913 162.724 103.837 161.648C102.761 160.572 102.156 159.112 102.156 157.591C102.156 156.069 102.761 154.61 103.837 153.534C104.913 152.458 106.372 151.854 107.894 151.854H261.388C262.91 151.854 264.369 152.458 265.445 153.534C266.521 154.61 267.126 156.069 267.126 157.591C267.126 159.112 266.521 160.572 265.445 161.648C264.369 162.724 262.91 163.328 261.388 163.328Z" fill="#EF8538"/>
<path d="M69.591 169.424C81.475 169.424 91.1088 159.791 91.1088 147.91C91.1088 136.028 81.475 126.395 69.591 126.395C57.7071 126.395 48.0732 136.028 48.0732 147.91C48.0732 159.791 57.7071 169.424 69.591 169.424Z" fill="#EF8538"/>
<path d="M261.379 186.635H241.296C239.774 186.635 238.314 186.031 237.238 184.955C236.162 183.879 235.558 182.419 235.558 180.898C235.558 179.376 236.162 177.917 237.238 176.841C238.314 175.765 239.774 175.161 241.296 175.161H261.379C262.901 175.161 264.36 175.765 265.436 176.841C266.513 177.917 267.117 179.376 267.117 180.898C267.117 182.419 266.513 183.879 265.436 184.955C264.36 186.031 262.901 186.635 261.379 186.635Z" fill="white"/>
<path d="M261.379 186.635H241.296C239.774 186.635 238.314 186.031 237.238 184.955C236.162 183.879 235.558 182.419 235.558 180.898C235.558 179.376 236.162 177.917 237.238 176.841C238.314 175.765 239.774 175.161 241.296 175.161H261.379C262.901 175.161 264.36 175.765 265.436 176.841C266.513 177.917 267.117 179.376 267.117 180.898C267.117 182.419 266.513 183.879 265.436 184.955C264.36 186.031 262.901 186.635 261.379 186.635Z" fill="#CCCCCC"/>
<path d="M271.641 231.097H43.5521C40.3196 231.102 37.2208 232.388 34.9351 234.673C32.6494 236.959 31.3632 240.057 31.3586 243.289V316.437C31.3632 319.669 32.6494 322.767 34.9351 325.052C37.2208 327.338 40.3196 328.624 43.5521 328.628H271.641C274.874 328.625 277.973 327.339 280.259 325.054C282.545 322.768 283.831 319.669 283.834 316.437V243.289C283.831 240.057 282.545 236.958 280.259 234.672C277.973 232.386 274.874 231.101 271.641 231.097ZM282.4 316.437C282.397 319.289 281.263 322.024 279.246 324.041C277.229 326.058 274.493 327.192 271.641 327.194H43.5521C40.6997 327.19 37.9651 326.056 35.9482 324.039C33.9313 322.023 32.7966 319.289 32.7932 316.437V243.289C32.7966 240.437 33.9313 237.703 35.9482 235.686C37.9651 233.67 40.6997 232.535 43.5521 232.532H271.641C274.493 232.534 277.229 233.668 279.246 235.685C281.263 237.702 282.397 240.437 282.4 243.289V316.437Z" fill="#3F3D56"/>
<path d="M187.51 275.919H107.894C106.372 275.919 104.913 275.314 103.837 274.238C102.761 273.162 102.156 271.703 102.156 270.181C102.156 268.66 102.761 267.201 103.837 266.125C104.913 265.049 106.372 264.444 107.894 264.444H187.51C189.032 264.444 190.491 265.049 191.567 266.125C192.643 267.201 193.248 268.66 193.248 270.181C193.248 271.703 192.643 273.162 191.567 274.238C190.491 275.314 189.032 275.919 187.51 275.919Z" fill="#EF8538"/>
<path d="M261.388 295.281H107.894C106.372 295.281 104.913 294.677 103.837 293.601C102.761 292.525 102.156 291.066 102.156 289.544C102.156 288.023 102.761 286.563 103.837 285.487C104.913 284.412 106.372 283.807 107.894 283.807H261.388C262.91 283.807 264.369 284.412 265.445 285.487C266.521 286.563 267.126 288.023 267.126 289.544C267.126 291.066 266.521 292.525 265.445 293.601C264.369 294.677 262.91 295.281 261.388 295.281Z" fill="#EF8538"/>
<path d="M69.591 301.377C81.475 301.377 91.1088 291.745 91.1088 279.863C91.1088 267.981 81.475 258.349 69.591 258.349C57.7071 258.349 48.0732 267.981 48.0732 279.863C48.0732 291.745 57.7071 301.377 69.591 301.377Z" fill="#EF8538"/>
<path d="M261.379 318.588H241.296C239.774 318.588 238.314 317.984 237.238 316.908C236.162 315.832 235.558 314.373 235.558 312.851C235.558 311.33 236.162 309.87 237.238 308.794C238.314 307.718 239.774 307.114 241.296 307.114H261.379C262.901 307.114 264.36 307.718 265.436 308.794C266.513 309.87 267.117 311.33 267.117 312.851C267.117 314.373 266.513 315.832 265.436 316.908C264.36 317.984 262.901 318.588 261.379 318.588Z" fill="#CCCCCC"/>
<path d="M469.283 398.908H368.866C368.676 398.908 368.494 398.832 368.359 398.698C368.225 398.563 368.149 398.381 368.149 398.19C368.149 398 368.225 397.818 368.359 397.683C368.494 397.549 368.676 397.473 368.866 397.473H469.283C469.473 397.473 469.655 397.549 469.79 397.683C469.924 397.818 470 398 470 398.19C470 398.381 469.924 398.563 469.79 398.698C469.655 398.832 469.473 398.908 469.283 398.908Z" fill="#3F3D56"/>
</g>
<defs>
<clipPath id="clip0">
<rect width="470" height="398.908" fill="white"/>
</clipPath>
</defs>
</svg>
